<svg width="703" height="378"
     viewBox="341.7 329.2 702.7 377.5"
     xmlns="http://www.w3.org/2000/svg" role="img">
  <defs>
    <marker id="arrow" markerWidth="8" markerHeight="8" refX="4" refY="4" orient="auto">
      <path d="M0,0 L8,4 L0,8 Z" fill="#000000"/>
    </marker>
  </defs>
  <path d="M 1025.59 359.24 C 1021.87 367.71 1018.15 376.19 1011.34 382.05 C 1004.52 387.91 994.23 389.34 984.72 394.40 C 975.22 399.47 962.39 406.44 954.31 412.46 C 946.23 418.48 946.86 425.45 936.25 430.52 C 925.63 435.59 901.55 438.76 890.62 442.88 C 879.69 447.00 877.00 451.12 870.66 455.24 C 864.33 459.36 860.68 464.90 852.60 467.59 C 844.52 470.29 831.38 469.34 822.19 471.40 C 813.00 473.45 805.08 476.46 797.47 479.95 C 789.87 483.43 783.85 489.30 776.56 492.31 C 769.28 495.32 762.46 496.58 753.75 498.01 C 745.04 499.43 732.84 499.12 724.29 500.86 C 715.73 502.60 708.13 506.56 702.43 508.46 C 696.72 510.37 690.07 512.27 690.07 512.27 C 684.68 513.85 676.60 512.74 670.11 517.97 C 663.61 523.20 656.96 537.77 651.10 543.63 C 645.24 549.49 641.12 549.18 634.94 553.14 C 628.76 557.10 621.32 563.43 614.03 567.40 C 606.74 571.36 598.03 575.32 591.22 576.90 C 584.41 578.48 578.39 575.47 573.16 576.90 C 567.93 578.33 564.29 582.13 559.85 585.45 C 555.42 588.78 553.04 593.38 546.54 596.86 C 540.05 600.35 526.90 603.83 520.88 606.37 C 514.86 608.90 514.23 609.69 510.43 612.07 C 506.62 614.44 505.04 617.30 498.07 620.62 C 491.10 623.95 477.79 629.81 468.60 632.03 C 459.42 634.25 450.54 631.24 442.94 633.93 C 435.34 636.62 429.47 643.12 422.98 648.19 C 416.48 653.26 409.83 660.70 403.97 664.35 C 398.11 667.99 390.50 668.94 387.81 670.05 C 385.12 671.16 386.46 671.08 387.81 671.00" fill="none" stroke="#932727" stroke-width="1.00"/>
  <polygon points="386.9,360.0 1025.3,360.0 1025.3,671.0 386.9,671.0" fill="none" stroke="#0A111D" stroke-width="1.00"/>
  <path d="M 514.56 392.63 C 523.68 452.46 532.80 512.29 563.18 555.42 C 593.56 598.55 645.20 624.98 696.85 651.42" fill="none" stroke="#0A111D" stroke-width="1.00"/>
  <path d="M 694.79 663.86 C 687.08 612.46 679.37 561.05 646.45 520.49 C 613.54 479.92 555.43 450.20 497.32 420.48" fill="none" stroke="#0A111D" stroke-width="1.00"/>
  <ellipse cx="520.6" cy="432.1" rx="3.6" ry="3.6" fill="#000000" stroke="#000000" stroke-width="1.00"/>
  <ellipse cx="560.6" cy="494.9" rx="3.6" ry="3.6" fill="#000000" stroke="#000000" stroke-width="1.00"/>
  <path d="M 613.69 378.52 C 622.81 438.34 631.93 498.17 662.31 541.31 C 692.69 584.44 744.34 610.87 795.98 637.30" fill="none" stroke="#0A111D" stroke-width="1.00"/>
  <ellipse cx="657.5" cy="534.6" rx="3.6" ry="3.6" fill="#000000" stroke="#000000" stroke-width="1.00"/>
  <text x="518.4" y="424.7" font-size="15" font-style="italic" fill="#000000">A</text>
  <text x="559.5" y="493.5" font-size="15" font-style="italic" fill="#000000">B</text>
  <text x="661.1" y="542.7" font-size="15" font-style="italic" fill="#000000">C</text>
  <text x="356.7" y="676.8" font-size="15" font-style="italic" fill="#000000">1</text>
  <text x="1022.8" y="353.6" font-size="15" font-style="italic" fill="#000000">2</text>
  <polygon points="386.9,360.0 392.1,378.5 381.7,378.5" fill="#595959"/>
  <polygon points="1025.3,670.9 1020.1,652.4 1030.5,652.4" fill="#595959"/>
  <polygon points="1025.3,670.7 1006.8,675.9 1006.8,665.5" fill="#595959"/>
  <polygon points="388.7,360.4 407.3,355.2 407.3,365.5" fill="#595959"/>
  <text x="355.7" y="374.7" font-size="15" font-style="italic" fill="#000000">y</text>
  <text x="1030.5" y="662.3" font-size="15" font-style="italic" fill="#000000">y</text>
  <text x="386.9" y="343.2" font-size="15" font-style="italic" fill="#000000">x</text>
  <text x="997.3" y="692.7" font-size="15" font-style="italic" fill="#000000">x</text>
  <ellipse cx="387.3" cy="670.3" rx="3.6" ry="3.6" fill="#000000" stroke="#000000" stroke-width="1.00"/>
  <ellipse cx="1024.9" cy="360.5" rx="3.6" ry="3.6" fill="#000000" stroke="#000000" stroke-width="1.00"/>
</svg>