<svg width="880" height="318" viewBox="0 0 880 318"
     xmlns="http://www.w3.org/2000/svg" role="img" font-family="Source Sans Pro, Helvetica, Arial, sans-serif">
  <title>Custo de abatimento total e marginal da firma 1</title>
  <defs>
    <marker id="seta" markerWidth="9" markerHeight="9" refX="5" refY="4.5" orient="auto">
      <path d="M0,0 L9,4.5 L0,9 Z" fill="#000000"/>
    </marker>
    <marker id="seta-apagada" markerWidth="9" markerHeight="9" refX="5" refY="4.5" orient="auto">
      <path d="M0,0 L9,4.5 L0,9 Z" fill="#c8d0d8"/>
    </marker>
  </defs>
  <text x="220.0" y="15.0" font-size="14" fill="#000000" text-anchor="middle" font-weight="600" stroke="#ffffff" stroke-width="3.5" stroke-linejoin="round" paint-order="stroke">Total: C₁(e₁)</text>
  <text x="660.0" y="15.0" font-size="14" fill="#000000" text-anchor="middle" font-weight="600" stroke="#ffffff" stroke-width="3.5" stroke-linejoin="round" paint-order="stroke">Marginal: CMg₁(e₁)</text>
  <line x1="58.0" y1="264.0" x2="58.0" y2="38.0" stroke="#000000" stroke-width="1.2" marker-end="url(#seta)"/>
  <line x1="58.0" y1="264.0" x2="422.0" y2="264.0" stroke="#000000" stroke-width="1.2" marker-end="url(#seta)"/>
  <text x="430.0" y="269.0" font-size="15" fill="#000000" text-anchor="start" font-style="italic" stroke="#ffffff" stroke-width="3.5" stroke-linejoin="round" paint-order="stroke">e₁</text>
  <text x="66.0" y="38.0" font-size="15" fill="#000000" text-anchor="start" font-style="italic" stroke="#ffffff" stroke-width="3.5" stroke-linejoin="round" paint-order="stroke">C₁(e₁)</text>
  <line x1="498.0" y1="264.0" x2="498.0" y2="38.0" stroke="#000000" stroke-width="1.2" marker-end="url(#seta)"/>
  <line x1="498.0" y1="264.0" x2="862.0" y2="264.0" stroke="#000000" stroke-width="1.2" marker-end="url(#seta)"/>
  <text x="870.0" y="269.0" font-size="15" fill="#000000" text-anchor="start" font-style="italic" stroke="#ffffff" stroke-width="3.5" stroke-linejoin="round" paint-order="stroke">e₁</text>
  <text x="506.0" y="38.0" font-size="15" fill="#000000" text-anchor="start" font-style="italic" stroke="#ffffff" stroke-width="3.5" stroke-linejoin="round" paint-order="stroke">CMg₁(e₁)</text>
  <path d="M 58.0 65.8 L 60.8 69.1 L 63.6 72.4 L 66.4 75.6 L 69.2 78.8 L 72.0 82.0 L 74.8 85.1 L 77.6 88.3 L 80.4 91.4 L 83.2 94.4 L 86.0 97.5 L 88.8 100.5 L 91.6 103.5 L 94.4 106.4 L 97.2 109.4 L 100.0 112.3 L 102.8 115.1 L 105.6 118.0 L 108.4 120.8 L 111.2 123.6 L 114.0 126.4 L 116.8 129.1 L 119.6 131.8 L 122.4 134.5 L 125.2 137.2 L 128.0 139.8 L 130.8 142.4 L 133.6 145.0 L 136.4 147.5 L 139.2 150.0 L 142.0 152.5 L 144.8 155.0 L 147.6 157.4 L 150.4 159.8 L 153.2 162.2 L 156.0 164.6 L 158.8 166.9 L 161.6 169.2 L 164.4 171.5 L 167.2 173.7 L 169.9 175.9 L 172.7 178.1 L 175.5 180.3 L 178.3 182.4 L 181.1 184.5 L 183.9 186.6 L 186.7 188.6 L 189.5 190.7 L 192.3 192.7 L 195.1 194.6 L 197.9 196.6 L 200.7 198.5 L 203.5 200.4 L 206.3 202.2 L 209.1 204.1 L 211.9 205.9 L 214.7 207.6 L 217.5 209.4 L 220.3 211.1 L 223.1 212.8 L 225.9 214.5 L 228.7 216.1 L 231.5 217.7 L 234.3 219.3 L 237.1 220.8 L 239.9 222.4 L 242.7 223.9 L 245.5 225.3 L 248.3 226.8 L 251.1 228.2 L 253.9 229.6 L 256.7 231.0 L 259.5 232.3 L 262.3 233.6 L 265.1 234.9 L 267.9 236.1 L 270.7 237.4 L 273.5 238.6 L 276.3 239.7 L 279.1 240.9 L 281.9 242.0 L 284.7 243.1 L 287.5 244.1 L 290.3 245.2 L 293.1 246.2 L 295.9 247.1 L 298.7 248.1 L 301.5 249.0 L 304.3 249.9 L 307.1 250.8 L 309.9 251.6 L 312.7 252.4 L 315.5 253.2 L 318.3 254.0 L 321.1 254.7 L 323.9 255.4 L 326.7 256.1 L 329.5 256.7 L 332.3 257.3 L 335.1 257.9 L 337.9 258.5 L 340.7 259.0 L 343.5 259.5 L 346.3 260.0 L 349.1 260.5 L 351.9 260.9 L 354.7 261.3 L 357.5 261.7 L 360.3 262.0 L 363.1 262.3 L 365.9 262.6 L 368.7 262.9 L 371.5 263.1 L 374.3 263.3 L 377.1 263.5 L 379.9 263.7 L 382.7 263.8 L 385.5 263.9 L 388.3 263.9 L 391.1 264.0 L 393.8 264.0" fill="none" stroke="#C00000" stroke-width="2.2" stroke-linecap="round"/>
  <path d="M 498.0 72.8 L 500.8 74.4 L 503.6 76.0 L 506.4 77.6 L 509.2 79.1 L 512.0 80.7 L 514.8 82.3 L 517.6 83.9 L 520.4 85.5 L 523.2 87.1 L 526.0 88.7 L 528.8 90.3 L 531.6 91.9 L 534.4 93.5 L 537.2 95.1 L 540.0 96.7 L 542.8 98.3 L 545.6 99.9 L 548.4 101.5 L 551.2 103.0 L 554.0 104.6 L 556.8 106.2 L 559.6 107.8 L 562.4 109.4 L 565.2 111.0 L 568.0 112.6 L 570.8 114.2 L 573.6 115.8 L 576.4 117.4 L 579.2 119.0 L 582.0 120.6 L 584.8 122.2 L 587.6 123.8 L 590.4 125.4 L 593.2 127.0 L 596.0 128.5 L 598.8 130.1 L 601.6 131.7 L 604.4 133.3 L 607.2 134.9 L 609.9 136.5 L 612.7 138.1 L 615.5 139.7 L 618.3 141.3 L 621.1 142.9 L 623.9 144.5 L 626.7 146.1 L 629.5 147.7 L 632.3 149.3 L 635.1 150.9 L 637.9 152.5 L 640.7 154.0 L 643.5 155.6 L 646.3 157.2 L 649.1 158.8 L 651.9 160.4 L 654.7 162.0 L 657.5 163.6 L 660.3 165.2 L 663.1 166.8 L 665.9 168.4 L 668.7 170.0 L 671.5 171.6 L 674.3 173.2 L 677.1 174.8 L 679.9 176.4 L 682.7 177.9 L 685.5 179.5 L 688.3 181.1 L 691.1 182.7 L 693.9 184.3 L 696.7 185.9 L 699.5 187.5 L 702.3 189.1 L 705.1 190.7 L 707.9 192.3 L 710.7 193.9 L 713.5 195.5 L 716.3 197.1 L 719.1 198.7 L 721.9 200.3 L 724.7 201.9 L 727.5 203.4 L 730.3 205.0 L 733.1 206.6 L 735.9 208.2 L 738.7 209.8 L 741.5 211.4 L 744.3 213.0 L 747.1 214.6 L 749.9 216.2 L 752.7 217.8 L 755.5 219.4 L 758.3 221.0 L 761.1 222.6 L 763.9 224.2 L 766.7 225.8 L 769.5 227.3 L 772.3 228.9 L 775.1 230.5 L 777.9 232.1 L 780.7 233.7 L 783.5 235.3 L 786.3 236.9 L 789.1 238.5 L 791.9 240.1 L 794.7 241.7 L 797.5 243.3 L 800.3 244.9 L 803.1 246.5 L 805.9 248.1 L 808.7 249.7 L 811.5 251.3 L 814.3 252.8 L 817.1 254.4 L 819.9 256.0 L 822.7 257.6 L 825.5 259.2 L 828.3 260.8 L 831.1 262.4 L 833.8 264.0" fill="none" stroke="#C00000" stroke-width="2.2" stroke-linecap="round"/>
  <line x1="58.0" y1="251.6" x2="309.9" y2="251.6" stroke="#8a94a0" stroke-width="1.1" stroke-dasharray="4 3"/>
  <line x1="309.9" y1="264.0" x2="309.9" y2="251.6" stroke="#8a94a0" stroke-width="1.1" stroke-dasharray="4 3"/>
  <circle cx="309.9" cy="251.6" r="4.5" fill="#C00000" stroke="#ffffff" stroke-width="1.5"/>
  <text x="309.9" y="284.0" font-size="15" fill="#000000" text-anchor="middle" font-style="italic" stroke="#ffffff" stroke-width="3.5" stroke-linejoin="round" paint-order="stroke">e₁*</text>
  <path d="M 749.9 264.0 L 749.9 216.2 L 751.3 217.0 L 752.7 217.8 L 754.1 218.6 L 755.5 219.4 L 756.9 220.2 L 758.3 221.0 L 759.7 221.8 L 761.1 222.6 L 762.5 223.4 L 763.9 224.2 L 765.3 225.0 L 766.7 225.8 L 768.1 226.6 L 769.5 227.3 L 770.9 228.1 L 772.3 228.9 L 773.7 229.7 L 775.1 230.5 L 776.5 231.3 L 777.9 232.1 L 779.3 232.9 L 780.7 233.7 L 782.1 234.5 L 783.5 235.3 L 784.9 236.1 L 786.3 236.9 L 787.7 237.7 L 789.1 238.5 L 790.5 239.3 L 791.9 240.1 L 793.3 240.9 L 794.7 241.7 L 796.1 242.5 L 797.5 243.3 L 798.9 244.1 L 800.3 244.9 L 801.7 245.7 L 803.1 246.5 L 804.5 247.3 L 805.9 248.1 L 807.3 248.9 L 808.7 249.7 L 810.1 250.5 L 811.5 251.3 L 812.9 252.0 L 814.3 252.8 L 815.7 253.6 L 817.1 254.4 L 818.5 255.2 L 819.9 256.0 L 821.3 256.8 L 822.7 257.6 L 824.1 258.4 L 825.5 259.2 L 826.9 260.0 L 828.3 260.8 L 829.7 261.6 L 831.1 262.4 L 832.4 263.2 L 833.8 264.0 L 833.8 264.0 Z" fill="#C00000" fill-opacity="0.3" stroke="none"/>
  <line x1="749.9" y1="264.0" x2="749.9" y2="216.2" stroke="#8a94a0" stroke-width="1.1" stroke-dasharray="4 3"/>
  <text x="749.9" y="284.0" font-size="15" fill="#000000" text-anchor="middle" font-style="italic" stroke="#ffffff" stroke-width="3.5" stroke-linejoin="round" paint-order="stroke">e₁*</text>
  <text x="393.8" y="284.0" font-size="15" fill="#000000" text-anchor="middle" font-style="italic" stroke="#ffffff" stroke-width="3.5" stroke-linejoin="round" paint-order="stroke">ê₁</text>
  <text x="833.8" y="284.0" font-size="15" fill="#000000" text-anchor="middle" font-style="italic" stroke="#ffffff" stroke-width="3.5" stroke-linejoin="round" paint-order="stroke">ê₁</text>
</svg>
