<svg width="786" height="376" viewBox="0 0 786 376"
     xmlns="http://www.w3.org/2000/svg" role="img" font-family="Source Sans Pro, Helvetica, Arial, sans-serif">
  <title>Perda de bem-estar sob monopólio em função da alíquota</title>
  <defs>
    <marker id="seta" markerWidth="9" markerHeight="9" refX="5" refY="4.5" orient="auto">
      <path d="M0,0 L9,4.5 L0,9 Z" fill="#000000"/>
    </marker>
    <marker id="seta-apagada" markerWidth="9" markerHeight="9" refX="5" refY="4.5" orient="auto">
      <path d="M0,0 L9,4.5 L0,9 Z" fill="#c8d0d8"/>
    </marker>
    <marker id="seta-dano" markerWidth="9" markerHeight="9" refX="5" refY="4.5" orient="auto">
      <path d="M0,0 L9,4.5 L0,9 Z" fill="#0070C0"/>
    </marker>
  </defs>
  <text x="380.0" y="17.0" font-size="18" fill="#000000" text-anchor="middle" font-weight="600" stroke="#ffffff" stroke-width="3.5" stroke-linejoin="round" paint-order="stroke">Perda de bem-estar sob monopólio, para cada alíquota τ</text>
  <line x1="58.0" y1="282.0" x2="58.0" y2="46.0" stroke="#000000" stroke-width="1.2" marker-end="url(#seta)"/>
  <line x1="58.0" y1="282.0" x2="742.0" y2="282.0" stroke="#000000" stroke-width="1.2" marker-end="url(#seta)"/>
  <text x="750.0" y="288.0" font-size="19" fill="#000000" text-anchor="start" font-style="italic" stroke="#ffffff" stroke-width="3.5" stroke-linejoin="round" paint-order="stroke">τ</text>
  <text x="66.0" y="46.0" font-size="19" fill="#000000" text-anchor="start" font-style="italic" stroke="#ffffff" stroke-width="3.5" stroke-linejoin="round" paint-order="stroke">perda</text>
  <path d="M 58.0 166.9 L 63.4 168.4 L 68.8 169.8 L 74.2 171.2 L 79.7 172.5 L 85.1 173.8 L 90.5 175.1 L 95.9 176.3 L 101.3 177.5 L 106.8 178.6 L 112.2 179.7 L 117.6 180.8 L 123.0 181.8 L 128.4 182.8 L 133.8 183.7 L 139.2 184.6 L 144.7 185.5 L 150.1 186.3 L 155.5 187.1 L 160.9 187.8 L 166.3 188.5 L 171.8 189.2 L 177.2 189.8 L 182.6 190.4 L 188.0 190.9 L 193.4 191.4 L 198.8 191.9 L 204.2 192.3 L 209.7 192.7 L 215.1 193.0 L 220.5 193.3 L 225.9 193.6 L 231.3 193.8 L 236.7 194.0 L 242.2 194.1 L 247.6 194.2 L 253.0 194.3 L 258.4 194.3 L 263.8 194.3 L 269.2 194.2 L 274.7 194.1 L 280.1 194.0 L 285.5 193.8 L 290.9 193.6 L 296.3 193.3 L 301.8 193.0 L 307.2 192.7 L 312.6 192.3 L 318.0 191.9 L 323.4 191.4 L 328.8 191.0 L 334.2 190.4 L 339.7 189.8 L 345.1 189.2 L 350.5 188.6 L 355.9 187.9 L 361.3 187.1 L 366.7 186.3 L 372.2 185.5 L 377.6 184.7 L 383.0 183.8 L 388.4 182.8 L 393.8 181.9 L 399.2 180.8 L 404.7 179.8 L 410.1 178.7 L 415.5 177.5 L 420.9 176.4 L 426.3 175.2 L 431.8 173.9 L 437.2 172.6 L 442.6 171.3 L 448.0 169.9 L 453.4 168.5 L 458.8 167.0 L 464.2 165.5 L 469.7 164.0 L 475.1 162.4 L 480.5 160.8 L 485.9 159.1 L 491.3 157.4 L 496.8 155.7 L 502.2 153.9 L 507.6 152.1 L 513.0 150.2 L 518.4 148.4 L 523.8 146.4 L 529.2 144.4 L 534.7 142.4 L 540.1 140.4 L 545.5 138.3 L 550.9 136.1 L 556.3 134.0 L 561.8 131.7 L 567.2 129.5 L 572.6 127.2 L 578.0 124.9 L 583.4 122.5 L 588.8 120.1 L 594.2 117.6 L 599.7 115.1 L 605.1 112.6 L 610.5 110.0 L 615.9 107.4 L 621.3 104.7 L 626.8 102.0 L 632.2 99.3 L 637.6 96.5 L 643.0 93.7 L 648.4 90.9 L 653.8 88.0 L 659.2 85.0 L 664.7 82.0 L 670.1 79.0 L 675.5 76.0 L 680.9 72.9 L 686.3 69.7 L 691.8 66.6 L 697.2 63.4 L 702.6 60.1 L 708.0 56.8" fill="none" stroke="#C00000" stroke-width="2.6" stroke-linecap="round"/>
  <line x1="58.0" y1="166.9" x2="708.0" y2="166.9" stroke="#8a94a0" stroke-width="1.4" stroke-dasharray="5 4"/>
  <text x="461.0" y="159.2" font-size="17" fill="#8a94a0" text-anchor="start" stroke="#ffffff" stroke-width="3.5" stroke-linejoin="round" paint-order="stroke">perda sem imposto nenhum: 1.312,5</text>
  <line x1="58.0" y1="194.3" x2="258.6" y2="194.3" stroke="#8a94a0" stroke-width="1.1" stroke-dasharray="4 3"/>
  <line x1="258.6" y1="282.0" x2="258.6" y2="194.3" stroke="#8a94a0" stroke-width="1.1" stroke-dasharray="4 3"/>
  <circle cx="258.6" cy="194.3" r="4.5" fill="#1b3a5c" stroke="#ffffff" stroke-width="1.5"/>
  <text x="258.6" y="302.0" font-size="15" fill="#1b3a5c" text-anchor="middle" font-style="italic" stroke="#ffffff" stroke-width="3.5" stroke-linejoin="round" paint-order="stroke">τᵐ = 8,3</text>
  <text x="50.0" y="199.3" font-size="15" fill="#1b3a5c" text-anchor="end" font-style="italic" stroke="#ffffff" stroke-width="3.5" stroke-linejoin="round" paint-order="stroke">1.000</text>
  <line x1="58.0" y1="84.7" x2="659.9" y2="84.7" stroke="#8a94a0" stroke-width="1.1" stroke-dasharray="4 3"/>
  <line x1="659.9" y1="282.0" x2="659.9" y2="84.7" stroke="#8a94a0" stroke-width="1.1" stroke-dasharray="4 3"/>
  <circle cx="659.9" cy="84.7" r="4.5" fill="#0070C0" stroke="#ffffff" stroke-width="1.5"/>
  <text x="659.9" y="302.0" font-size="15" fill="#0070C0" text-anchor="middle" font-style="italic" stroke="#ffffff" stroke-width="3.5" stroke-linejoin="round" paint-order="stroke">τ* = 25</text>
  <text x="50.0" y="89.7" font-size="15" fill="#0070C0" text-anchor="end" font-style="italic" stroke="#ffffff" stroke-width="3.5" stroke-linejoin="round" paint-order="stroke">2.250</text>
  <circle cx="459.2" cy="166.9" r="3.6" fill="#8a94a0" stroke="#ffffff" stroke-width="1.5"/>
  <text x="459.2" y="302.0" font-size="15" fill="#8a94a0" text-anchor="middle" font-style="italic" stroke="#ffffff" stroke-width="3.5" stroke-linejoin="round" paint-order="stroke">16,7</text>
  <text x="380.0" y="362.0" font-size="17" fill="#1b3a5c" text-anchor="middle" font-weight="600" stroke="#ffffff" stroke-width="3.5" stroke-linejoin="round" paint-order="stroke">a perda nunca chega a zero, e a alíquota do mundo competitivo é a pior das três</text>
</svg>
