<svg width="956" height="386" viewBox="0 0 956 386"
     xmlns="http://www.w3.org/2000/svg" role="img" font-family="Source Sans Pro, Helvetica, Arial, sans-serif">
  <title>Monopólio com o imposto eficiente do mundo competitivo</title>
  <defs>
    <marker id="seta" markerWidth="9" markerHeight="9" refX="5" refY="4.5" orient="auto">
      <path d="M0,0 L9,4.5 L0,9 Z" fill="#000000"/>
    </marker>
    <marker id="seta-apagada" markerWidth="9" markerHeight="9" refX="5" refY="4.5" orient="auto">
      <path d="M0,0 L9,4.5 L0,9 Z" fill="#c8d0d8"/>
    </marker>
    <marker id="seta-dano" markerWidth="9" markerHeight="9" refX="5" refY="4.5" orient="auto">
      <path d="M0,0 L9,4.5 L0,9 Z" fill="#0070C0"/>
    </marker>
  </defs>
  <text x="235.0" y="17.0" font-size="18" fill="#000000" text-anchor="middle" font-weight="600" stroke="#ffffff" stroke-width="3.5" stroke-linejoin="round" paint-order="stroke">Mercado do produto</text>
  <line x1="58.0" y1="292.0" x2="58.0" y2="46.0" stroke="#000000" stroke-width="1.2" marker-end="url(#seta)"/>
  <line x1="58.0" y1="292.0" x2="452.0" y2="292.0" stroke="#000000" stroke-width="1.2" marker-end="url(#seta)"/>
  <text x="460.0" y="298.0" font-size="19" fill="#000000" text-anchor="start" font-style="italic" stroke="#ffffff" stroke-width="3.5" stroke-linejoin="round" paint-order="stroke">X</text>
  <text x="66.0" y="46.0" font-size="19" fill="#000000" text-anchor="start" font-style="italic" stroke="#ffffff" stroke-width="3.5" stroke-linejoin="round" paint-order="stroke">R$ por unidade</text>
  <path d="M 58.0 75.6 L 61.2 77.6 L 64.4 79.5 L 67.7 81.5 L 70.9 83.4 L 74.1 85.3 L 77.3 87.3 L 80.5 89.2 L 83.7 91.1 L 87.0 93.1 L 90.2 95.0 L 93.4 97.0 L 96.6 98.9 L 99.8 100.8 L 103.0 102.8 L 106.2 104.7 L 109.5 106.6 L 112.7 108.6 L 115.9 110.5 L 119.1 112.5 L 122.3 114.4 L 125.5 116.3 L 128.8 118.3 L 132.0 120.2 L 135.2 122.2 L 138.4 124.1 L 141.6 126.0 L 144.9 128.0 L 148.1 129.9 L 151.3 131.8 L 154.5 133.8 L 157.7 135.7 L 160.9 137.7 L 164.1 139.6 L 167.4 141.5 L 170.6 143.5 L 173.8 145.4 L 177.0 147.4 L 180.2 149.3 L 183.4 151.2 L 186.7 153.2 L 189.9 155.1 L 193.1 157.0 L 196.3 159.0 L 199.5 160.9 L 202.8 162.9 L 206.0 164.8 L 209.2 166.7 L 212.4 168.7 L 215.6 170.6 L 218.8 172.5 L 222.0 174.5 L 225.3 176.4 L 228.5 178.4 L 231.7 180.3 L 234.9 182.2 L 238.1 184.2 L 241.3 186.1 L 244.6 188.1 L 247.8 190.0 L 251.0 191.9 L 254.2 193.9 L 257.4 195.8 L 260.6 197.7 L 263.9 199.7 L 267.1 201.6 L 270.3 203.6 L 273.5 205.5 L 276.7 207.4 L 280.0 209.4 L 283.2 211.3 L 286.4 213.3 L 289.6 215.2 L 292.8 217.1 L 296.0 219.1 L 299.2 221.0 L 302.5 222.9 L 305.7 224.9 L 308.9 226.8 L 312.1 228.8 L 315.3 230.7 L 318.6 232.6 L 321.8 234.6 L 325.0 236.5 L 328.2 238.5 L 331.4 240.4 L 334.6 242.3 L 337.9 244.3 L 341.1 246.2 L 344.3 248.1 L 347.5 250.1 L 350.7 252.0 L 353.9 254.0 L 357.2 255.9 L 360.4 257.8 L 363.6 259.8 L 366.8 261.7 L 370.0 263.6 L 373.2 265.6 L 376.4 267.5 L 379.7 269.5 L 382.9 271.4 L 386.1 273.3 L 389.3 275.3 L 392.5 277.2 L 395.8 279.2 L 399.0 281.1 L 402.2 283.0 L 405.4 285.0 L 408.6 286.9 L 411.8 288.8 L 415.1 290.8 L 418.3 292.7 L 421.5 294.7 L 424.7 296.6 L 427.9 298.5 L 431.1 300.5 L 434.3 302.4 L 437.6 304.4 L 440.8 306.3 L 444.0 308.2" fill="none" stroke="#2E7D32" stroke-width="2.4" stroke-linecap="round"/>
  <line x1="58.0" y1="75.6" x2="237.5" y2="291.9" stroke="#2E7D32" stroke-width="2.2" stroke-dasharray="7 4"/>
  <line x1="58.0" y1="210.9" x2="444.0" y2="210.9" stroke="#C00000" stroke-width="2.4"/>
  <text x="363.2" y="247.4" font-size="17" fill="#2E7D32" text-anchor="start" font-style="italic" font-weight="600" stroke="#ffffff" stroke-width="3.5" stroke-linejoin="round" paint-order="stroke">P(X)</text>
  <text x="206.1" y="269.0" font-size="17" fill="#2E7D32" text-anchor="start" font-style="italic" font-weight="600" stroke="#ffffff" stroke-width="3.5" stroke-linejoin="round" paint-order="stroke">RMg(X)</text>
  <text x="439.5" y="197.3" font-size="17" fill="#C00000" text-anchor="end" font-style="italic" font-weight="600" stroke="#ffffff" stroke-width="3.5" stroke-linejoin="round" paint-order="stroke">Cₓ = c + δτ* = 60</text>
  <path d="M 170.2 210.9 L 170.2 143.2 L 173.0 144.9 L 175.8 146.6 L 178.6 148.3 L 181.4 150.0 L 184.2 151.7 L 187.0 153.4 L 189.8 155.1 L 192.7 156.8 L 195.5 158.5 L 198.3 160.2 L 201.1 161.8 L 203.9 163.5 L 206.7 165.2 L 209.5 166.9 L 212.3 168.6 L 215.1 170.3 L 217.9 172.0 L 220.7 173.7 L 223.5 175.4 L 226.3 177.1 L 229.1 178.7 L 231.9 180.4 L 234.7 182.1 L 237.5 183.8 L 240.3 185.5 L 243.1 187.2 L 246.0 188.9 L 248.8 190.6 L 251.6 192.3 L 254.4 194.0 L 257.2 195.7 L 260.0 197.3 L 262.8 199.0 L 265.6 200.7 L 268.4 202.4 L 271.2 204.1 L 274.0 205.8 L 276.8 207.5 L 279.6 209.2 L 282.4 210.9 L 282.4 210.9 Z" fill="#1b3a5c" fill-opacity="0.16" stroke="none"/>
  <line x1="58.0" y1="210.9" x2="282.4" y2="210.9" stroke="#8a94a0" stroke-width="1.1" stroke-dasharray="4 3"/>
  <line x1="282.4" y1="292.0" x2="282.4" y2="210.9" stroke="#8a94a0" stroke-width="1.1" stroke-dasharray="4 3"/>
  <circle cx="282.4" cy="210.9" r="4.5" fill="#E38080" stroke="#ffffff" stroke-width="1.5"/>
  <text x="282.4" y="312.0" font-size="15" fill="#E38080" text-anchor="middle" font-style="italic" stroke="#ffffff" stroke-width="3.5" stroke-linejoin="round" paint-order="stroke">X* = 100</text>
  <line x1="58.0" y1="143.2" x2="170.2" y2="143.2" stroke="#8a94a0" stroke-width="1.1" stroke-dasharray="4 3"/>
  <line x1="170.2" y1="292.0" x2="170.2" y2="143.2" stroke="#8a94a0" stroke-width="1.1" stroke-dasharray="4 3"/>
  <circle cx="170.2" cy="143.2" r="4.5" fill="#1b3a5c" stroke="#ffffff" stroke-width="1.5"/>
  <text x="170.2" y="312.0" font-size="15" fill="#000000" text-anchor="middle" font-style="italic" stroke="#ffffff" stroke-width="3.5" stroke-linejoin="round" paint-order="stroke">Xᵐ = 50</text>
  <text x="50.0" y="148.2" font-size="15" fill="#000000" text-anchor="end" font-style="italic" stroke="#ffffff" stroke-width="3.5" stroke-linejoin="round" paint-order="stroke">110</text>
  <text x="50.0" y="215.9" font-size="15" fill="#000000" text-anchor="end" font-style="italic" stroke="#ffffff" stroke-width="3.5" stroke-linejoin="round" paint-order="stroke">60</text>
  <text x="705.0" y="17.0" font-size="18" fill="#000000" text-anchor="middle" font-weight="600" stroke="#ffffff" stroke-width="3.5" stroke-linejoin="round" paint-order="stroke">Mercado de emissão</text>
  <line x1="528.0" y1="292.0" x2="528.0" y2="46.0" stroke="#000000" stroke-width="1.2" marker-end="url(#seta)"/>
  <line x1="528.0" y1="292.0" x2="922.0" y2="292.0" stroke="#000000" stroke-width="1.2" marker-end="url(#seta)"/>
  <text x="930.0" y="298.0" font-size="19" fill="#000000" text-anchor="start" font-style="italic" stroke="#ffffff" stroke-width="3.5" stroke-linejoin="round" paint-order="stroke">E</text>
  <text x="536.0" y="46.0" font-size="19" fill="#000000" text-anchor="start" font-style="italic" stroke="#ffffff" stroke-width="3.5" stroke-linejoin="round" paint-order="stroke">R$ por tonelada</text>
  <line x1="528.0" y1="292.0" x2="914.0" y2="149.9" stroke="#0070C0" stroke-width="2.4"/>
  <line x1="528.0" y1="71.6" x2="887.0" y2="291.9" stroke="#E38080" stroke-width="2.2"/>
  <text x="657.3" y="131.1" font-size="17" fill="#E38080" text-anchor="start" font-style="italic" font-weight="600" stroke="#ffffff" stroke-width="3.5" stroke-linejoin="round" paint-order="stroke">−Cₑ(X*, E)</text>
  <circle cx="752.4" cy="209.4" r="4.5" fill="#E38080" stroke="#ffffff" stroke-width="1.5"/>
  <text x="752.4" y="312.0" font-size="15" fill="#E38080" text-anchor="middle" font-style="italic" stroke="#ffffff" stroke-width="3.5" stroke-linejoin="round" paint-order="stroke">E* = 125</text>
  <line x1="528.0" y1="209.4" x2="914.0" y2="209.4" stroke="#8a94a0" stroke-width="1.4" stroke-dasharray="5 4"/>
  <text x="520.0" y="214.4" font-size="15" fill="#000000" text-anchor="end" font-style="italic" stroke="#ffffff" stroke-width="3.5" stroke-linejoin="round" paint-order="stroke">τ* = 25</text>
  <line x1="528.0" y1="181.8" x2="707.5" y2="292.0" stroke="#C00000" stroke-width="2.6"/>
  <line x1="572.9" y1="292.0" x2="572.9" y2="209.4" stroke="#8a94a0" stroke-width="1.1" stroke-dasharray="4 3"/>
  <circle cx="572.9" cy="209.4" r="4.5" fill="#1b3a5c" stroke="#ffffff" stroke-width="1.5"/>
  <text x="581.9" y="198.3" font-size="17" fill="#C00000" text-anchor="start" font-style="italic" font-weight="600" stroke="#ffffff" stroke-width="3.5" stroke-linejoin="round" paint-order="stroke">−Cₑ(Xᵐ, E)</text>
  <text x="829.6" y="164.4" font-size="17" fill="#0070C0" text-anchor="start" font-style="italic" font-weight="600" stroke="#ffffff" stroke-width="3.5" stroke-linejoin="round" paint-order="stroke">D′(E)</text>
  <text x="572.9" y="312.0" font-size="15" fill="#000000" text-anchor="middle" font-style="italic" stroke="#ffffff" stroke-width="3.5" stroke-linejoin="round" paint-order="stroke">Eᵐ = 25</text>
  <circle cx="572.9" cy="275.5" r="3.6" fill="#0070C0" stroke="#ffffff" stroke-width="1.5"/>
  <text x="520.0" y="280.5" font-size="15" fill="#0070C0" text-anchor="end" font-style="italic" stroke="#ffffff" stroke-width="3.5" stroke-linejoin="round" paint-order="stroke">5</text>
  <text x="470.0" y="372.0" font-size="17" fill="#1b3a5c" text-anchor="middle" font-weight="600" stroke="#ffffff" stroke-width="3.5" stroke-linejoin="round" paint-order="stroke">produzir 50 em vez de 100 puxa a curva de abatimento para a esquerda, e o mesmo τ* para em E = 25</text>
</svg>
