<svg width="896" height="342" viewBox="0 0 896 342"
     xmlns="http://www.w3.org/2000/svg" role="img" font-family="Source Sans Pro, Helvetica, Arial, sans-serif">
  <title>Quando abater é produzir menos, o custo de abatimento é lucro perdido</title>
  <defs>
    <marker id="seta" markerWidth="9" markerHeight="9" refX="5" refY="4.5" orient="auto">
      <path d="M0,0 L9,4.5 L0,9 Z" fill="#000000"/>
    </marker>
    <marker id="seta-apagada" markerWidth="9" markerHeight="9" refX="5" refY="4.5" orient="auto">
      <path d="M0,0 L9,4.5 L0,9 Z" fill="#c8d0d8"/>
    </marker>
    <marker id="seta-dano" markerWidth="9" markerHeight="9" refX="5" refY="4.5" orient="auto">
      <path d="M0,0 L9,4.5 L0,9 Z" fill="#0070C0"/>
    </marker>
  </defs>
  <text x="220.0" y="17.0" font-size="18" fill="#000000" text-anchor="middle" font-weight="600" stroke="#ffffff" stroke-width="3.5" stroke-linejoin="round" paint-order="stroke">Lucro da firma, para cada e</text>
  <line x1="58.0" y1="288.0" x2="58.0" y2="46.0" stroke="#000000" stroke-width="1.2" marker-end="url(#seta)"/>
  <line x1="58.0" y1="288.0" x2="422.0" y2="288.0" stroke="#000000" stroke-width="1.2" marker-end="url(#seta)"/>
  <text x="430.0" y="294.0" font-size="19" fill="#000000" text-anchor="start" font-style="italic" stroke="#ffffff" stroke-width="3.5" stroke-linejoin="round" paint-order="stroke">e</text>
  <text x="66.0" y="46.0" font-size="19" fill="#000000" text-anchor="start" font-style="italic" stroke="#ffffff" stroke-width="3.5" stroke-linejoin="round" paint-order="stroke">Π(e)</text>
  <path d="M 58.0 288.0 L 61.0 284.1 L 63.9 280.1 L 66.9 276.3 L 69.9 272.4 L 72.8 268.7 L 75.8 264.9 L 78.8 261.2 L 81.7 257.5 L 84.7 253.9 L 87.7 250.3 L 90.6 246.7 L 93.6 243.2 L 96.6 239.7 L 99.5 236.3 L 102.5 232.9 L 105.5 229.5 L 108.4 226.2 L 111.4 222.9 L 114.4 219.7 L 117.3 216.5 L 120.3 213.3 L 123.3 210.2 L 126.2 207.1 L 129.2 204.0 L 132.2 201.0 L 135.1 198.0 L 138.1 195.1 L 141.1 192.2 L 144.0 189.4 L 147.0 186.5 L 150.0 183.8 L 152.9 181.0 L 155.9 178.3 L 158.9 175.7 L 161.8 173.0 L 164.8 170.5 L 167.8 167.9 L 170.7 165.4 L 173.7 162.9 L 176.7 160.5 L 179.6 158.1 L 182.6 155.8 L 185.6 153.5 L 188.5 151.2 L 191.5 149.0 L 194.5 146.8 L 197.4 144.6 L 200.4 142.5 L 203.4 140.4 L 206.3 138.4 L 209.3 136.4 L 212.3 134.4 L 215.2 132.5 L 218.2 130.6 L 221.2 128.8 L 224.1 127.0 L 227.1 125.2 L 230.1 123.5 L 233.0 121.8 L 236.0 120.2 L 239.0 118.6 L 241.9 117.0 L 244.9 115.5 L 247.9 114.0 L 250.8 112.5 L 253.8 111.1 L 256.8 109.8 L 259.7 108.4 L 262.7 107.1 L 265.7 105.9 L 268.6 104.7 L 271.6 103.5 L 274.6 102.3 L 277.5 101.2 L 280.5 100.2 L 283.5 99.2 L 286.4 98.2 L 289.4 97.2 L 292.4 96.3 L 295.3 95.5 L 298.3 94.6 L 301.3 93.8 L 304.2 93.1 L 307.2 92.4 L 310.2 91.7 L 313.1 91.1 L 316.1 90.5 L 319.1 89.9 L 322.0 89.4 L 325.0 88.9 L 328.0 88.5 L 330.9 88.1 L 333.9 87.8 L 336.9 87.4 L 339.8 87.2 L 342.8 86.9 L 345.8 86.7 L 348.7 86.5 L 351.7 86.4 L 354.7 86.3 L 357.6 86.3 L 360.6 86.3 L 363.6 86.3 L 366.5 86.4 L 369.5 86.5 L 372.5 86.6 L 375.4 86.8 L 378.4 87.1 L 381.4 87.3 L 384.3 87.6 L 387.3 88.0 L 390.3 88.3 L 393.2 88.8 L 396.2 89.2 L 399.2 89.7 L 402.1 90.3 L 405.1 90.8 L 408.1 91.5 L 411.0 92.1 L 414.0 92.8" fill="none" stroke="#2E7D32" stroke-width="2.4" stroke-linecap="round"/>
  <line x1="58.0" y1="86.3" x2="359.7" y2="86.3" stroke="#8a94a0" stroke-width="1.1" stroke-dasharray="4 3"/>
  <line x1="359.7" y1="288.0" x2="359.7" y2="86.3" stroke="#8a94a0" stroke-width="1.1" stroke-dasharray="4 3"/>
  <circle cx="359.7" cy="86.3" r="4.5" fill="#2E7D32" stroke="#ffffff" stroke-width="1.5"/>
  <text x="359.7" y="308.0" font-size="15" fill="#000000" text-anchor="middle" font-style="italic" stroke="#ffffff" stroke-width="3.5" stroke-linejoin="round" paint-order="stroke">ê</text>
  <text x="50.0" y="91.3" font-size="15" fill="#000000" text-anchor="end" font-style="italic" stroke="#ffffff" stroke-width="3.5" stroke-linejoin="round" paint-order="stroke">2.500</text>
  <line x1="58.0" y1="118.6" x2="239.0" y2="118.6" stroke="#8a94a0" stroke-width="1.1" stroke-dasharray="4 3"/>
  <line x1="239.0" y1="288.0" x2="239.0" y2="118.6" stroke="#8a94a0" stroke-width="1.1" stroke-dasharray="4 3"/>
  <circle cx="239.0" cy="118.6" r="4.5" fill="#C00000" stroke="#ffffff" stroke-width="1.5"/>
  <text x="239.0" y="308.0" font-size="15" fill="#C00000" text-anchor="middle" font-style="italic" stroke="#ffffff" stroke-width="3.5" stroke-linejoin="round" paint-order="stroke">e = 60</text>
  <text x="50.0" y="123.6" font-size="15" fill="#C00000" text-anchor="end" font-style="italic" stroke="#ffffff" stroke-width="3.5" stroke-linejoin="round" paint-order="stroke">2.100</text>
  <line x1="109.3" y1="118.6" x2="109.3" y2="86.3" stroke="#C00000" stroke-width="2.0"/>
  <text x="121.4" y="105.6" font-size="17" fill="#C00000" text-anchor="start" font-style="italic" font-weight="600" stroke="#ffffff" stroke-width="3.5" stroke-linejoin="round" paint-order="stroke">400</text>
  <text x="660.0" y="17.0" font-size="18" fill="#000000" text-anchor="middle" font-weight="600" stroke="#ffffff" stroke-width="3.5" stroke-linejoin="round" paint-order="stroke">Lucro marginal, que é o custo marginal de abater</text>
  <line x1="498.0" y1="288.0" x2="498.0" y2="46.0" stroke="#000000" stroke-width="1.2" marker-end="url(#seta)"/>
  <line x1="498.0" y1="288.0" x2="862.0" y2="288.0" stroke="#000000" stroke-width="1.2" marker-end="url(#seta)"/>
  <text x="870.0" y="294.0" font-size="19" fill="#000000" text-anchor="start" font-style="italic" stroke="#ffffff" stroke-width="3.5" stroke-linejoin="round" paint-order="stroke">e</text>
  <text x="506.0" y="46.0" font-size="19" fill="#000000" text-anchor="start" font-style="italic" stroke="#ffffff" stroke-width="3.5" stroke-linejoin="round" paint-order="stroke">dΠ/de</text>
  <line x1="498.0" y1="86.3" x2="799.7" y2="288.0" stroke="#C00000" stroke-width="2.4"/>
  <path d="M 679.0 288.0 L 679.0 207.3 L 799.7 288.0 Z" fill="#C00000" fill-opacity="0.3" stroke="none"/>
  <circle cx="799.7" cy="288.0" r="4.5" fill="#C00000" stroke="#ffffff" stroke-width="1.5"/>
  <text x="799.7" y="308.0" font-size="15" fill="#000000" text-anchor="middle" font-style="italic" stroke="#ffffff" stroke-width="3.5" stroke-linejoin="round" paint-order="stroke">ê</text>
  <line x1="679.0" y1="288.0" x2="679.0" y2="207.3" stroke="#8a94a0" stroke-width="1.1" stroke-dasharray="4 3"/>
  <text x="679.0" y="308.0" font-size="15" fill="#C00000" text-anchor="middle" font-style="italic" stroke="#ffffff" stroke-width="3.5" stroke-linejoin="round" paint-order="stroke">e = 60</text>
  <text x="490.0" y="212.3" font-size="15" fill="#000000" text-anchor="end" font-style="italic" stroke="#ffffff" stroke-width="3.5" stroke-linejoin="round" paint-order="stroke">20</text>
  <text x="715.2" y="257.7" font-size="17" fill="#C00000" text-anchor="start" font-style="italic" font-weight="600" stroke="#ffffff" stroke-width="3.5" stroke-linejoin="round" paint-order="stroke">400</text>
</svg>
